<?xml version="1.0" standalone="no"?>
<!DOCTYPE svg PUBLIC "-//W3C//DTD SVG 20010904//EN"
 "http://www.w3.org/TR/2001/REC-SVG-20010904/DTD/svg10.dtd">
<svg version="1.0" xmlns="http://www.w3.org/2000/svg"
 width="700.000000pt" height="700.000000pt" viewBox="0 0 700.000000 700.000000"
 preserveAspectRatio="xMidYMid meet">
<metadata>
Created by potrace 1.14, written by Peter Selinger 2001-2017
</metadata>
<g transform="translate(0.000000,700.000000) scale(0.100000,-0.100000)"
fill="#000000" stroke="none">
<path d="M3278 6995 c-2 -1 -42 -5 -89 -9 -47 -4 -95 -8 -105 -10 -10 -2 -48
-7 -84 -12 -36 -4 -67 -8 -70 -9 -3 -1 -25 -5 -50 -9 -181 -32 -553 -137 -675
-191 -16 -7 -64 -28 -105 -45 -687 -293 -1297 -849 -1662 -1515 -192 -352
-340 -777 -392 -1130 -4 -23 -9 -52 -11 -65 -3 -14 -8 -52 -11 -85 -3 -33 -9
-96 -13 -140 -8 -81 -7 -533 2 -570 4 -16 13 -86 22 -170 17 -144 117 -549
165 -660 5 -11 23 -58 40 -105 49 -130 138 -323 202 -439 32 -58 58 -107 58
-109 0 -16 228 -344 312 -450 125 -156 375 -408 523 -525 105 -84 316 -230
400 -277 360 -203 713 -337 1045 -396 14 -2 48 -9 75 -14 81 -15 107 -19 165
-25 30 -4 66 -8 79 -10 67 -11 237 -19 416 -19 288 -1 505 19 715 64 25 5 57
12 71 14 30 5 198 50 274 73 98 30 201 69 340 128 45 19 250 120 280 138 180
109 438 284 465 316 3 3 34 30 70 60 119 100 345 333 460 477 256 319 485 741
622 1144 32 96 81 262 93 320 2 8 10 44 18 80 9 36 18 83 21 105 4 23 9 52 11
65 3 14 8 45 11 70 3 25 7 56 9 69 20 119 26 453 12 636 -28 371 -110 720
-248 1057 -129 313 -339 664 -541 904 -172 204 -342 372 -521 515 -56 44 -111
88 -122 97 -44 35 -277 183 -370 234 -277 152 -574 266 -865 333 -58 13 -121
27 -140 30 -19 3 -42 8 -50 10 -14 4 -73 13 -125 20 -11 1 -42 5 -70 9 -27 4
-72 9 -100 12 -54 6 -551 14 -557 9z m477 -729 c552 -51 1043 -249 1466 -588
114 -91 285 -257 369 -358 30 -36 57 -67 61 -70 10 -10 116 -155 158 -217 58
-88 59 -91 17 -88 -19 2 -104 6 -188 10 -84 4 -178 8 -208 10 -30 1 -149 6
-265 10 -115 4 -244 9 -285 10 -637 25 -2175 25 -2835 0 -55 -2 -183 -7 -285
-10 -102 -4 -219 -8 -260 -10 -300 -14 -356 -18 -363 -22 -31 -19 152 247 238
347 248 287 535 516 845 674 257 132 555 233 795 270 161 25 173 26 270 33 50
3 91 7 92 8 6 4 313 -3 378 -9z m-163 -2140 c160 -17 336 -129 431 -275 84
-127 114 -241 104 -395 -16 -267 -193 -484 -462 -565 -57 -17 -90 -20 -180
-17 -135 5 -150 8 -250 55 -180 85 -300 229 -351 422 -36 139 -11 326 61 454
86 154 253 280 412 312 53 10 138 19 163 17 14 -2 46 -5 72 -8z m-2668 -368
c259 -148 453 -273 641 -414 61 -45 119 -91 130 -101 12 -10 50 -43 85 -73
196 -166 467 -468 555 -618 11 -18 23 -32 27 -32 4 0 8 -4 8 -9 0 -5 26 -51
59 -102 69 -112 160 -286 220 -424 24 -55 52 -119 62 -142 40 -90 149 -436
192 -608 39 -155 97 -426 97 -454 0 -6 -13 -6 -32 -1 -18 5 -49 11 -68 14 -79
12 -298 79 -430 131 -400 158 -739 400 -1033 738 -49 56 -159 199 -197 257 -8
12 -22 32 -31 44 -14 19 -60 96 -112 186 -160 282 -312 718 -343 985 -3 22 -7
47 -9 55 -23 83 -24 500 0 625 2 11 4 23 4 28 2 13 12 8 175 -85z m5327 85 c0
-5 2 -17 4 -28 23 -116 23 -481 0 -616 -4 -24 -10 -65 -21 -136 -13 -90 -92
-382 -123 -458 -5 -11 -26 -65 -47 -120 -92 -237 -299 -593 -443 -762 -113
-132 -146 -168 -221 -242 -149 -148 -360 -312 -495 -386 -27 -15 -54 -31 -60
-35 -5 -4 -50 -28 -100 -53 -177 -90 -390 -167 -571 -207 -55 -12 -116 -25
-136 -29 -20 -5 -39 -7 -41 -5 -2 2 2 32 9 66 8 35 16 77 19 95 10 63 77 343
109 458 76 270 163 499 282 740 113 229 195 365 327 540 310 410 754 773 1352
1105 33 18 78 44 100 56 43 25 55 28 56 17z"/>
</g>
</svg>
