<?xml version="1.0" encoding="UTF-8" standalone="no"?>
<!DOCTYPE svg PUBLIC "-//W3C//DTD SVG 1.1//EN" "http://www.w3.org/Graphics/SVG/1.1/DTD/svg11.dtd">
<svg width="100%" height="100%" viewBox="0 0 1391 813" version="1.1" xmlns="http://www.w3.org/2000/svg" xmlns:xlink="http://www.w3.org/1999/xlink" xml:space="preserve" xmlns:serif="http://www.serif.com/" style="fill-rule:evenodd;clip-rule:evenodd;stroke-linejoin:round;stroke-miterlimit:2;">
    <g transform="matrix(1,0,0,1,-534.659,-208.963)">
        <path d="M1374.02,740.632C1352.97,765.499 1317.73,794.442 1264.36,803.088C1286.55,678.064 1340.87,631.553 1421.45,587.871C1422.49,596.087 1423.1,604.377 1423.1,612.678C1423.1,656.504 1404.75,704.342 1374.02,740.632ZM1036.9,612.678C1036.9,604.355 1037.63,596.125 1038.68,587.946C1119.04,631.522 1173.26,677.948 1195.52,802.37C1087.68,783.623 1036.9,683.045 1036.9,612.678ZM1230,656.655C1205.65,656.618 1185.95,636.898 1185.95,612.677C1185.95,588.322 1205.65,568.604 1230,568.566C1254.35,568.604 1274.05,588.322 1274.05,612.677C1274.05,636.898 1254.35,656.618 1230,656.655ZM1230.07,419.517C1307.3,419.517 1363.63,461.601 1394.65,512.23C1250.59,504.531 1129.36,508.572 1065.16,512.045C1099.77,455.033 1161.66,419.517 1230.07,419.517ZM1466.42,554.119C1442.04,455.685 1352.48,369.173 1230.07,369.173C1130.84,369.173 1042.47,428.393 1004.85,520.072C988.55,559.816 986.563,593.6 986.563,612.677C986.563,718.664 1070.16,857.771 1234.7,856.048C1390.37,854.458 1473.44,717.736 1473.44,612.677C1473.44,592.937 1471.05,573.197 1466.42,554.119Z" style="fill:rgb(15,34,60);fill-rule:nonzero;"/>
    </g>
    <g transform="matrix(1,0,0,1,-534.659,-208.963)">
        <path d="M1490.29,548.206C1493.52,561.477 1495.74,574.939 1496.95,588.47L1760.17,465.719C1770.2,461.043 1774.54,449.122 1769.86,439.097C1765.17,429.067 1753.23,424.71 1743.24,429.406L1490.1,547.457C1490.16,547.707 1490.23,547.956 1490.29,548.206Z" style="fill:rgb(240,49,7);fill-rule:nonzero;"/>
    </g>
    <g transform="matrix(1,0,0,1,-534.659,-208.963)">
        <path d="M699.828,465.719L963.063,588.478C964.31,574.64 966.617,560.96 969.995,547.501L716.759,429.406C706.767,424.71 694.835,429.067 690.138,439.097C685.456,449.122 689.797,461.043 699.828,465.719Z" style="fill:rgb(240,49,7);fill-rule:nonzero;"/>
    </g>
    <g transform="matrix(1,0,0,1,-534.659,-208.963)">
        <path d="M961.962,612.677C961.962,606.344 962.191,600.037 962.631,593.76L663.073,508.489C652.429,505.457 641.341,511.626 638.315,522.276C635.276,532.919 641.46,544 652.088,547.033L956.766,633.76L610.023,587.311C599.043,585.896 588.985,593.539 587.51,604.509C586.039,615.479 593.732,625.561 604.702,627.029L928.75,670.438L555.449,670.438C545.816,670.438 536.962,676.891 535.073,686.337C532.499,699.216 542.284,710.507 554.694,710.507L981.657,710.507C968.929,678.729 961.962,645.083 961.962,612.677Z" style="fill:rgb(240,49,7);fill-rule:nonzero;"/>
    </g>
    <g transform="matrix(1,0,0,1,-534.659,-208.963)">
        <path d="M1924.93,686.337C1923.04,676.891 1914.18,670.438 1904.55,670.438L1531.25,670.438L1855.3,627.029C1866.27,625.561 1873.96,615.479 1872.49,604.509C1871.01,593.539 1860.96,585.896 1849.98,587.311L1503.23,633.76L1807.91,547.033C1818.54,544 1824.72,532.919 1821.69,522.276C1818.66,511.626 1807.57,505.457 1796.93,508.489L1497.35,593.766C1497.79,600.063 1498.04,606.37 1498.04,612.677C1498.04,644.971 1491.04,678.639 1478.25,710.507L1905.31,710.507C1917.72,710.507 1927.5,699.216 1924.93,686.337Z" style="fill:rgb(240,49,7);fill-rule:nonzero;"/>
    </g>
    <g transform="matrix(1,0,0,1,-534.659,-208.963)">
        <path d="M1038.18,880.669L1020.24,888.007C1016.95,877.771 1010.79,867.151 1005.47,862.357C1001.18,858.489 996.859,857.468 994,860.642C983.823,871.934 1024.16,896.61 1002.88,920.222C991.108,933.287 973.313,929.765 958.753,916.646C947.834,906.808 940.336,892.61 938.308,879.284L956.269,872.3C957.689,884.235 964.237,897.237 971.049,903.375C976.276,908.085 981.309,909.068 984.673,905.335C995.101,893.763 954.346,869.554 975.201,846.409C986.05,834.37 1003.3,836.052 1018.98,850.18C1028.41,858.673 1035.42,870.229 1038.18,880.669Z" style="fill:rgb(15,34,60);fill-rule:nonzero;"/>
    </g>
    <g transform="matrix(1,0,0,1,-534.659,-208.963)">
        <path d="M1123.98,930.999L1105.68,939.214C1103.52,930.371 1097.72,922.709 1090.7,919.337C1078.13,913.301 1063.83,918.699 1057.57,931.723C1051.21,944.974 1055.88,959.622 1068.45,965.658C1075.14,968.866 1084.58,968.94 1092.85,965.941L1098.64,984.056C1085.96,988.697 1070.62,988.437 1058.95,982.835C1035.06,971.361 1025.71,945.269 1036.85,922.052C1047.84,899.175 1074.34,890.716 1098.46,902.3C1110.24,907.956 1119.97,919.038 1123.98,930.999Z" style="fill:rgb(15,34,60);fill-rule:nonzero;"/>
    </g>
    <g transform="matrix(1,0,0,1,-534.659,-208.963)">
        <path d="M1192.68,1018.02L1197.29,984.162L1161.19,979.247L1156.58,1013.1L1134.43,1010.09L1146.29,922.953L1168.45,925.97L1163.57,961.819L1199.67,966.735L1204.55,930.886L1226.7,933.903L1214.84,1021.04L1192.68,1018.02Z" style="fill:rgb(15,34,60);fill-rule:nonzero;"/>
    </g>
    <g transform="matrix(1,0,0,1,-534.659,-208.963)">
        <path d="M1276.3,973.255C1279.16,987.8 1292.58,996.81 1305.78,994.213C1319.09,991.593 1327.48,978.289 1324.62,963.743C1321.75,949.197 1308.99,940.314 1295.68,942.934C1282.37,945.555 1273.43,958.709 1276.3,973.255ZM1347.15,959.179C1352.1,984.326 1335.89,1007.36 1309.14,1012.63C1282.52,1017.87 1258.81,1002.82 1253.84,977.547C1248.89,952.402 1265.19,929.857 1291.82,924.616C1318.57,919.351 1342.22,934.156 1347.15,959.179Z" style="fill:rgb(15,34,60);fill-rule:nonzero;"/>
    </g>
    <g transform="matrix(1,0,0,1,-534.659,-208.963)">
        <path d="M1392.62,937.872C1400.14,950.643 1415.8,954.687 1427.38,947.862C1439.07,940.973 1442.57,925.638 1435.04,912.865C1427.52,900.094 1412.53,895.947 1400.84,902.836C1389.15,909.726 1385.09,925.1 1392.62,937.872ZM1454.79,901.084C1467.8,923.164 1460.15,950.273 1436.67,964.116C1413.29,977.895 1385.93,971.561 1372.85,949.373C1359.84,927.293 1367.74,900.616 1391.12,886.837C1414.61,872.995 1441.84,879.113 1454.79,901.084Z" style="fill:rgb(15,34,60);fill-rule:nonzero;"/>
    </g>
    <g transform="matrix(1,0,0,1,-534.659,-208.963)">
        <path d="M1537.26,851.84L1550.99,864.565L1510.42,908.332L1445.92,848.548L1461.12,832.147L1511.89,879.206L1537.26,851.84Z" style="fill:rgb(15,34,60);fill-rule:nonzero;"/>
    </g>
    <g transform="matrix(1,0,0,1,-534.659,-208.963)">
        <path d="M977.579,395.025L988.602,383.49C998.063,373.589 997.203,359.214 986.032,348.539C974.769,337.776 959.93,337.847 950.124,348.111L939.795,358.919L977.579,395.025ZM937.572,335.422C956.668,315.44 982.758,313.958 1001.65,332.011C1020.45,349.978 1020.07,376.377 1000.55,396.814L975.029,423.518L911.448,362.762L937.572,335.422Z" style="fill:rgb(15,34,60);fill-rule:nonzero;"/>
    </g>
    <g transform="matrix(1,0,0,1,-534.659,-208.963)">
        <path d="M1067.47,294.312C1076.05,289.843 1078.8,282.887 1074.51,274.642C1070.27,266.509 1063.11,264.999 1054.53,269.467L1039.49,277.303L1052.43,302.147L1067.47,294.312ZM1076.16,309.619L1075.6,309.91L1060.56,317.745L1071.99,339.693L1052.16,350.024L1011.53,272.036L1046.41,253.87C1067.02,243.132 1083.93,246.785 1092.99,264.165C1099.2,276.085 1098.66,287.276 1091.9,296.604L1121.68,313.808L1099.18,325.532L1076.16,309.619Z" style="fill:rgb(15,34,60);fill-rule:nonzero;"/>
    </g>
    <g transform="matrix(1,0,0,1,-534.659,-208.963)">
        <path d="M1145.2,308.974L1124.63,223.463L1146.38,218.233L1166.95,303.743L1145.2,308.974Z" style="fill:rgb(15,34,60);fill-rule:nonzero;"/>
    </g>
    <g transform="matrix(1,0,0,1,-534.659,-208.963)">
        <path d="M1219.27,297.448L1186.54,208.963L1210.4,209.352L1231.83,274.408L1255.37,210.083L1278.36,210.457L1242.39,297.824L1219.27,297.448Z" style="fill:rgb(15,34,60);fill-rule:nonzero;"/>
    </g>
    <g transform="matrix(1,0,0,1,-534.659,-208.963)">
        <path d="M1295.87,304.329L1317.21,219.013L1338.91,224.441L1317.56,309.757L1295.87,304.329Z" style="fill:rgb(15,34,60);fill-rule:nonzero;"/>
    </g>
    <g transform="matrix(1,0,0,1,-534.659,-208.963)">
        <path d="M1399.62,346.349L1390.22,279.416L1364.16,326.88L1345.77,316.783L1388.09,239.695L1405.38,249.188L1414.83,316.291L1440.95,268.716L1459.23,278.753L1416.91,355.841L1399.62,346.349Z" style="fill:rgb(15,34,60);fill-rule:nonzero;"/>
    </g>
    <g transform="matrix(1,0,0,1,-534.659,-208.963)">
        <path d="M1523.87,401.363L1498.41,424.334C1487.15,421.798 1473.68,413.989 1465.43,404.849C1447.51,384.98 1448.33,357.005 1467.35,339.839C1486.29,322.757 1514.44,325.274 1533.04,345.888C1541.79,355.589 1547.32,369.215 1547.41,381.316L1527.7,382.17C1527.8,373.458 1524.53,364.395 1519.06,358.333C1509.38,347.605 1493.58,346.97 1482.67,356.815C1471.57,366.829 1470.66,382.704 1480.42,393.523C1483.45,396.881 1488.54,400.078 1494.03,402.229L1510.91,386.999L1523.87,401.363Z" style="fill:rgb(15,34,60);fill-rule:nonzero;"/>
    </g>
</svg>
