<?xml version="1.0" encoding="UTF-8" standalone="no"?><!DOCTYPE svg PUBLIC "-//W3C//DTD SVG 1.1//EN" "http://www.w3.org/Graphics/SVG/1.1/DTD/svg11.dtd"><svg width="100%" height="100%" viewBox="0 0 2460 1216" version="1.1" xmlns="http://www.w3.org/2000/svg" xmlns:xlink="http://www.w3.org/1999/xlink" xml:space="preserve" xmlns:serif="http://www.serif.com/" style="fill-rule:evenodd;clip-rule:evenodd;stroke-linejoin:round;stroke-miterlimit:2;"><g><rect x="0" y="0" width="2460" height="1230" style="fill:#0f223c;fill-rule:nonzero;"/><path d="M1374.02,740.632c-21.05,24.867 -56.29,53.81 -109.66,62.456c22.19,-125.024 76.51,-171.535 157.09,-215.217c1.04,8.216 1.65,16.506 1.65,24.807c-0,43.826 -18.35,91.664 -49.08,127.954Zm-337.12,-127.954c0,-8.323 0.73,-16.553 1.78,-24.732c80.36,43.576 134.58,90.002 156.84,214.424c-107.84,-18.747 -158.62,-119.325 -158.62,-189.692Zm193.1,43.977c-24.35,-0.037 -44.05,-19.757 -44.05,-43.978c-0,-24.355 19.7,-44.073 44.05,-44.111c24.35,0.038 44.05,19.756 44.05,44.111c0,24.221 -19.7,43.941 -44.05,43.978Zm0.07,-237.138c77.23,-0 133.56,42.084 164.58,92.713c-144.06,-7.699 -265.29,-3.658 -329.49,-0.185c34.61,-57.012 96.5,-92.528 164.91,-92.528Zm236.35,134.602c-24.38,-98.434 -113.94,-184.946 -236.35,-184.946c-99.23,0 -187.6,59.22 -225.22,150.899c-16.3,39.744 -18.287,73.528 -18.287,92.605c-0,105.987 83.597,245.094 248.137,243.371c155.67,-1.59 238.74,-138.312 238.74,-243.371c-0,-19.74 -2.39,-39.48 -7.02,-58.558Z" style="fill:#fff;fill-rule:nonzero;"/><path d="M1490.29,548.206c3.23,13.271 5.45,26.733 6.66,40.264l263.22,-122.751c10.03,-4.676 14.37,-16.597 9.69,-26.622c-4.69,-10.03 -16.63,-14.387 -26.62,-9.691l-253.14,118.051c0.06,0.25 0.13,0.499 0.19,0.749Z" style="fill:#f03107;fill-rule:nonzero;"/><path d="M699.828,465.719l263.235,122.759c1.247,-13.838 3.554,-27.518 6.932,-40.977l-253.236,-118.095c-9.992,-4.696 -21.924,-0.339 -26.621,9.691c-4.682,10.025 -0.341,21.946 9.69,26.622Z" style="fill:#f03107;fill-rule:nonzero;"/><path d="M961.962,612.677c-0,-6.333 0.229,-12.64 0.669,-18.917l-299.558,-85.271c-10.644,-3.032 -21.732,3.137 -24.758,13.787c-3.039,10.643 3.145,21.724 13.773,24.757l304.678,86.727l-346.743,-46.449c-10.98,-1.415 -21.038,6.228 -22.513,17.198c-1.471,10.97 6.222,21.052 17.192,22.52l324.048,43.409l-373.301,-0c-9.633,-0 -18.487,6.453 -20.376,15.899c-2.574,12.879 7.211,24.17 19.621,24.17l426.963,-0c-12.728,-31.778 -19.695,-65.424 -19.695,-97.83Z" style="fill:#f03107;fill-rule:nonzero;"/><path d="M1924.93,686.337c-1.89,-9.446 -10.75,-15.899 -20.38,-15.899l-373.3,-0l324.05,-43.409c10.97,-1.468 18.66,-11.55 17.19,-22.52c-1.48,-10.97 -11.53,-18.613 -22.51,-17.198l-346.75,46.449l304.68,-86.727c10.63,-3.033 16.81,-14.114 13.78,-24.757c-3.03,-10.65 -14.12,-16.819 -24.76,-13.787l-299.58,85.277c0.44,6.297 0.69,12.604 0.69,18.911c0,32.294 -7,65.962 -19.79,97.83l427.06,-0c12.41,-0 22.19,-11.291 19.62,-24.17Z" style="fill:#f03107;fill-rule:nonzero;"/><path d="M1038.18,880.669l-17.94,7.338c-3.29,-10.236 -9.45,-20.856 -14.77,-25.65c-4.29,-3.868 -8.611,-4.889 -11.47,-1.715c-10.177,11.292 30.16,35.968 8.88,59.58c-11.772,13.065 -29.567,9.543 -44.127,-3.576c-10.919,-9.838 -18.417,-24.036 -20.445,-37.362l17.961,-6.984c1.42,11.935 7.968,24.937 14.78,31.075c5.227,4.71 10.26,5.693 13.624,1.96c10.428,-11.572 -30.327,-35.781 -9.472,-58.926c10.849,-12.039 28.099,-10.357 43.779,3.771c9.43,8.493 16.44,20.049 19.2,30.489Z" style="fill:#fff;fill-rule:nonzero;"/><path d="M1123.98,930.999l-18.3,8.215c-2.16,-8.843 -7.96,-16.505 -14.98,-19.877c-12.57,-6.036 -26.87,-0.638 -33.13,12.386c-6.36,13.251 -1.69,27.899 10.88,33.935c6.69,3.208 16.13,3.282 24.4,0.283l5.79,18.115c-12.68,4.641 -28.02,4.381 -39.69,-1.221c-23.89,-11.474 -33.241,-37.566 -22.1,-60.783c10.989,-22.877 37.49,-31.336 61.61,-19.752c11.78,5.656 21.51,16.738 25.52,28.699Z" style="fill:#fff;fill-rule:nonzero;"/><path d="M1192.68,1018.02l4.61,-33.858l-36.1,-4.915l-4.61,33.853l-22.15,-3.01l11.86,-87.137l22.16,3.017l-4.88,35.849l36.1,4.916l4.88,-35.849l22.15,3.017l-11.86,87.137l-22.16,-3.02Z" style="fill:#fff;fill-rule:nonzero;"/><path d="M1276.3,973.255c2.86,14.545 16.28,23.555 29.48,20.958c13.31,-2.62 21.7,-15.924 18.84,-30.47c-2.87,-14.546 -15.63,-23.429 -28.94,-20.809c-13.31,2.621 -22.25,15.775 -19.38,30.321Zm70.85,-14.076c4.95,25.147 -11.26,48.181 -38.01,53.451c-26.62,5.24 -50.33,-9.81 -55.3,-35.083c-4.95,-25.145 11.35,-47.69 37.98,-52.931c26.75,-5.265 50.4,9.54 55.33,34.563Z" style="fill:#fff;fill-rule:nonzero;"/><path d="M1392.62,937.872c7.52,12.771 23.18,16.815 34.76,9.99c11.69,-6.889 15.19,-22.224 7.66,-34.997c-7.52,-12.771 -22.51,-16.918 -34.2,-10.029c-11.69,6.89 -15.75,22.264 -8.22,35.036Zm62.17,-36.788c13.01,22.08 5.36,49.189 -18.12,63.032c-23.38,13.779 -50.74,7.445 -63.82,-14.743c-13.01,-22.08 -5.11,-48.757 18.27,-62.536c23.49,-13.842 50.72,-7.724 63.67,14.247Z" style="fill:#fff;fill-rule:nonzero;"/><path d="M1537.26,851.84l13.73,12.725l-40.57,43.767l-64.5,-59.784l15.2,-16.401l50.77,47.059l25.37,-27.366Z" style="fill:#fff;fill-rule:nonzero;"/><path d="M977.579,395.025l11.023,-11.535c9.461,-9.901 8.601,-24.276 -2.57,-34.951c-11.263,-10.763 -26.102,-10.692 -35.908,-0.428l-10.329,10.808l37.784,36.106Zm-40.007,-59.603c19.096,-19.982 45.186,-21.464 64.078,-3.411c18.8,17.967 18.42,44.366 -1.1,64.803l-25.521,26.704l-63.581,-60.756l26.124,-27.34Z" style="fill:#fff;fill-rule:nonzero;"/><path d="M1067.47,294.312c8.58,-4.469 11.33,-11.425 7.04,-19.67c-4.24,-8.133 -11.4,-9.643 -19.98,-5.175l-15.04,7.836l12.94,24.844l15.04,-7.835Zm8.69,15.307l-0.56,0.291l-15.04,7.835l11.43,21.948l-19.83,10.331l-40.63,-77.988l34.88,-18.166c20.61,-10.738 37.52,-7.085 46.58,10.295c6.21,11.92 5.67,23.111 -1.09,32.439l29.78,17.204l-22.5,11.724l-23.02,-15.913Z" style="fill:#fff;fill-rule:nonzero;"/><path d="M1145.2,308.974l-20.57,-85.511l21.75,-5.23l20.57,85.51l-21.75,5.231Z" style="fill:#fff;fill-rule:nonzero;"/><path d="M1219.27,297.448l-32.73,-88.485l23.86,0.389l21.43,65.056l23.54,-64.325l22.99,0.374l-35.97,87.367l-23.12,-0.376Z" style="fill:#fff;fill-rule:nonzero;"/><path d="M1295.87,304.329l21.34,-85.316l21.7,5.428l-21.35,85.316l-21.69,-5.428Z" style="fill:#fff;fill-rule:nonzero;"/><path d="M1399.62,346.349l-9.4,-66.933l-26.06,47.464l-18.39,-10.097l42.32,-77.088l17.29,9.493l9.45,67.103l26.12,-47.575l18.28,10.037l-42.32,77.088l-17.29,-9.492Z" style="fill:#fff;fill-rule:nonzero;"/><path d="M1523.87,401.363l-25.46,22.971c-11.26,-2.536 -24.73,-10.345 -32.98,-19.485c-17.92,-19.869 -17.1,-47.844 1.92,-65.01c18.94,-17.082 47.09,-14.565 65.69,6.049c8.75,9.701 14.28,23.327 14.37,35.428l-19.71,0.854c0.1,-8.712 -3.17,-17.775 -8.64,-23.837c-9.68,-10.728 -25.48,-11.363 -36.39,-1.518c-11.1,10.014 -12.01,25.889 -2.25,36.708c3.03,3.358 8.12,6.555 13.61,8.706l16.88,-15.23l12.96,14.364Z" style="fill:#fff;fill-rule:nonzero;"/></g></svg>