<?xml version="1.0" encoding="UTF-8" standalone="no"?>
<!DOCTYPE svg PUBLIC "-//W3C//DTD SVG 1.1//EN" "http://www.w3.org/Graphics/SVG/1.1/DTD/svg11.dtd">
<svg width="100%" height="100%" viewBox="0 0 487 487" version="1.1" xmlns="http://www.w3.org/2000/svg" xmlns:xlink="http://www.w3.org/1999/xlink" xml:space="preserve" xmlns:serif="http://www.serif.com/" style="fill-rule:evenodd;clip-rule:evenodd;stroke-linejoin:round;stroke-miterlimit:2;">
    <g transform="matrix(1,0,0,1,-986.563,-369.173)">
        <path d="M1374.02,740.632C1352.97,765.499 1317.73,794.442 1264.36,803.088C1286.55,678.064 1340.87,631.553 1421.45,587.871C1422.49,596.087 1423.1,604.377 1423.1,612.678C1423.1,656.504 1404.75,704.342 1374.02,740.632ZM1036.9,612.678C1036.9,604.355 1037.63,596.125 1038.68,587.946C1119.04,631.522 1173.26,677.948 1195.52,802.37C1087.68,783.623 1036.9,683.045 1036.9,612.678ZM1230,656.655C1205.65,656.618 1185.95,636.898 1185.95,612.677C1185.95,588.322 1205.65,568.604 1230,568.566C1254.35,568.604 1274.05,588.322 1274.05,612.677C1274.05,636.898 1254.35,656.618 1230,656.655ZM1230.07,419.517C1307.3,419.517 1363.63,461.601 1394.65,512.23C1250.59,504.531 1129.36,508.572 1065.16,512.045C1099.77,455.033 1161.66,419.517 1230.07,419.517ZM1466.42,554.119C1442.04,455.685 1352.48,369.173 1230.07,369.173C1130.84,369.173 1042.47,428.393 1004.85,520.072C988.55,559.816 986.563,593.6 986.563,612.677C986.563,718.664 1070.16,857.771 1234.7,856.048C1390.37,854.458 1473.44,717.736 1473.44,612.677C1473.44,592.937 1471.05,573.197 1466.42,554.119Z" style="fill:rgb(15,34,60);fill-rule:nonzero;"/>
    </g>
</svg>
